<?xml version="1.0" encoding="utf-8"?>
<!-- Generator: Adobe Illustrator 17.0.0, SVG Export Plug-In . SVG Version: 6.00 Build 0)  -->
<!DOCTYPE svg PUBLIC "-//W3C//DTD SVG 1.1//EN" "http://www.w3.org/Graphics/SVG/1.1/DTD/svg11.dtd">
<svg version="1.1" id="Layer_1" xmlns="http://www.w3.org/2000/svg" xmlns:xlink="http://www.w3.org/1999/xlink" x="0px" y="0px"
	 width="116.9px" height="137.2px" viewBox="0 0 116.9 137.2" enable-background="new 0 0 116.9 137.2" xml:space="preserve">
<g>
	<path fill="#406051" d="M45.1,74.3L12.7,61v48.3l37.8,27.7c0.1,0.1,0.3,0,0.3-0.2V81.3C50.9,77.9,48.4,75,45.1,74.3z"/>
	<path fill="#406051" d="M71.8,74.3L104.2,61v48.3l-37.8,27.7c-0.1,0.1-0.3,0-0.3-0.2V81.3C65.9,77.9,68.5,75,71.8,74.3z"/>
	<path fill="#E3C798" d="M12.7,109.2l-6-3.6c-4.2-2.5-6.7-7-6.7-11.8V58.4h12.7V109.2z"/>
	<path fill="#E3C798" d="M104.1,109.2l6-3.6c4.2-2.5,6.7-7,6.7-11.8V58.4h-12.7V109.2z"/>
	<path fill="#7C9382" d="M77.3,9.2c-5.3-2.4-11-3.9-17.2-4.1C34.1,4.2,12.7,25,12.7,50.8v2.5c30.3,5,61.2,5,91.4,0v-1.4
		c0-7-1.6-13.8-4.4-19.8C99.7,32.1,91.8,15.1,77.3,9.2z"/>
	<line fill="none" stroke="#464F5D" stroke-width="5.0805" stroke-miterlimit="10" x1="5.1" y1="58.4" x2="5.1" y2="7.6"/>
	<rect x="5.1" y="2.5" fill="#464F5D" stroke="#464F5D" stroke-width="5.0805" stroke-miterlimit="10" width="17.8" height="7.6"/>
	<circle fill="#DADADB" cx="76.2" cy="33" r="2.5"/>
	<circle fill="#DADADB" cx="81.3" cy="27.9" r="2.5"/>
	<circle fill="#DADADB" cx="86.4" cy="33" r="2.5"/>
	<circle fill="#DADADB" cx="81.3" cy="38.1" r="2.5"/>
	<circle fill="#DADADB" cx="71.1" cy="38.1" r="2.5"/>
	<circle fill="#DADADB" cx="71.1" cy="27.9" r="2.5"/>
	<path fill="#D25627" d="M43.2,114.5v17.2l7.4,5.5h15.6l7.4-5.5l0-17.2c0-19.8,12-37.7,30.3-45.2l0.2-0.1V53.3
		c-30.3,5-61.2,5-91.4,0v15.9l0.2,0.1C31.2,76.8,43.2,94.7,43.2,114.5z"/>
	<g>
		<path d="M12.7,61L12.7,61l32.4,13.4c3.3,0.7,5.8,3.6,5.7,7v22.9v32.6v0.4H66v-33h0V81.3c-0.1-3.4,2.4-6.3,5.7-7L104.1,61v0
			C73.9,66,43,66,12.7,61z"/>
	</g>
</g>
<g>
</g>
<g>
</g>
<g>
</g>
<g>
</g>
<g>
</g>
<g>
</g>
<g>
</g>
<g>
</g>
<g>
</g>
<g>
</g>
<g>
</g>
<g>
</g>
<g>
</g>
<g>
</g>
<g>
</g>
</svg>
