<?xml version="1.0" encoding="utf-8"?>
<!-- Generator: Adobe Illustrator 17.0.0, SVG Export Plug-In . SVG Version: 6.00 Build 0)  -->
<!DOCTYPE svg PUBLIC "-//W3C//DTD SVG 1.1//EN" "http://www.w3.org/Graphics/SVG/1.1/DTD/svg11.dtd">
<svg version="1.1" id="Layer_1" xmlns="http://www.w3.org/2000/svg" xmlns:xlink="http://www.w3.org/1999/xlink" x="0px" y="0px"
	 width="109.9px" height="109.9px" viewBox="0 0 109.9 109.9" enable-background="new 0 0 109.9 109.9" xml:space="preserve">
<rect x="0" y="0" fill="#ECF0F1" width="109.9" height="109.9"/>
<rect x="0" y="0" fill="#546A79" width="109.9" height="22.7"/>
<circle fill="#ED7161" cx="11.4" cy="11.4" r="5.7"/>
<circle fill="#F0C419" cx="28.4" cy="11.4" r="5.7"/>
<circle fill="#4FBA6F" cx="45.5" cy="11.4" r="5.7"/>
<rect x="0" y="22.7" fill="#556080" width="22.7" height="87.2"/>
<g>
	<path fill="#768E9B" d="M7.6,36h7.6c1,0,1.9-0.8,1.9-1.9c0-1-0.8-1.9-1.9-1.9H7.6c-1,0-1.9,0.8-1.9,1.9C5.7,35.2,6.5,36,7.6,36z"/>
	<path fill="#768E9B" d="M15.2,41.7H7.6c-1,0-1.9,0.8-1.9,1.9s0.8,1.9,1.9,1.9h7.6c1,0,1.9-0.8,1.9-1.9S16.2,41.7,15.2,41.7z"/>
	<path fill="#768E9B" d="M15.2,51.2H7.6c-1,0-1.9,0.8-1.9,1.9S6.5,55,7.6,55h7.6c1,0,1.9-0.8,1.9-1.9S16.2,51.2,15.2,51.2z"/>
	<path fill="#768E9B" d="M15.2,60.7H7.6c-1,0-1.9,0.8-1.9,1.9s0.8,1.9,1.9,1.9h7.6c1,0,1.9-0.8,1.9-1.9S16.2,60.7,15.2,60.7z"/>
	<path fill="#768E9B" d="M15.2,70.1H7.6c-1,0-1.9,0.8-1.9,1.9s0.8,1.9,1.9,1.9h7.6c1,0,1.9-0.8,1.9-1.9S16.2,70.1,15.2,70.1z"/>
	<path fill="#768E9B" d="M15.2,79.6H7.6c-1,0-1.9,0.8-1.9,1.9s0.8,1.9,1.9,1.9h7.6c1,0,1.9-0.8,1.9-1.9S16.2,79.6,15.2,79.6z"/>
	<path fill="#768E9B" d="M15.2,89.1H7.6c-1,0-1.9,0.8-1.9,1.9s0.8,1.9,1.9,1.9h7.6c1,0,1.9-0.8,1.9-1.9S16.2,89.1,15.2,89.1z"/>
	<path fill="#768E9B" d="M15.2,98.6H7.6c-1,0-1.9,0.8-1.9,1.9s0.8,1.9,1.9,1.9h7.6c1,0,1.9-0.8,1.9-1.9S16.2,98.6,15.2,98.6z"/>
</g>
<rect x="34.1" y="34.1" fill="#9777A8" width="26.5" height="26.5"/>
<rect x="72" y="34.1" fill="#F29C1F" width="26.5" height="26.5"/>
<rect x="34.1" y="72" fill="#26B99A" width="26.5" height="26.5"/>
<rect x="72" y="72" fill="#ED7161" width="26.5" height="26.5"/>
<g>
</g>
<g>
</g>
<g>
</g>
<g>
</g>
<g>
</g>
<g>
</g>
<g>
</g>
<g>
</g>
<g>
</g>
<g>
</g>
<g>
</g>
<g>
</g>
<g>
</g>
<g>
</g>
<g>
</g>
</svg>
