<?xml version="1.0" encoding="utf-8"?>
<!-- Generator: Adobe Illustrator 17.0.0, SVG Export Plug-In . SVG Version: 6.00 Build 0)  -->
<!DOCTYPE svg PUBLIC "-//W3C//DTD SVG 1.1//EN" "http://www.w3.org/Graphics/SVG/1.1/DTD/svg11.dtd">
<svg version="1.1" id="Layer_1" xmlns="http://www.w3.org/2000/svg" xmlns:xlink="http://www.w3.org/1999/xlink" x="0px" y="0px"
	 width="136.4px" height="136.4px" viewBox="0 0 136.4 136.4" enable-background="new 0 0 136.4 136.4" xml:space="preserve">
<g>
	<rect x="0" y="0" fill="#ECF0F1" width="136.4" height="136.4"/>
	<rect x="0" y="0" fill="#546A79" width="136.4" height="28.2"/>
	<circle fill="#ED7161" cx="14.1" cy="14.1" r="7.1"/>
	<circle fill="#F0C419" cx="35.3" cy="14.1" r="7.1"/>
	<circle fill="#4FBA6F" cx="56.4" cy="14.1" r="7.1"/>
	<rect x="11.8" y="40" fill="#FFFFFF" width="112.9" height="56.4"/>
	<rect x="51.7" y="77.6" fill="#4FBA6F" width="32.9" height="9.4"/>
	<circle fill="#BDC3C7" cx="45.9" cy="114" r="5.9"/>
	<circle fill="#BDC3C7" cx="67" cy="114" r="5.9"/>
	<circle fill="#BDC3C7" cx="88.2" cy="114" r="5.9"/>
	<path fill="#BDC3C7" d="M95.2,63.5H41.2c-1.3,0-2.4-1.1-2.4-2.4s1.1-2.4,2.4-2.4h54.1c1.3,0,2.4,1.1,2.4,2.4S96.5,63.5,95.2,63.5z"
		/>
	<path fill="#BDC3C7" d="M85.8,54.1H50.6c-1.3,0-2.4-1.1-2.4-2.4s1.1-2.4,2.4-2.4h35.3c1.3,0,2.4,1.1,2.4,2.4S87.1,54.1,85.8,54.1z"
		/>
</g>
<g>
</g>
<g>
</g>
<g>
</g>
<g>
</g>
<g>
</g>
<g>
</g>
<g>
</g>
<g>
</g>
<g>
</g>
<g>
</g>
<g>
</g>
<g>
</g>
<g>
</g>
<g>
</g>
<g>
</g>
</svg>
