<?xml version="1.0" encoding="utf-8"?>
<!-- Generator: Adobe Illustrator 17.0.0, SVG Export Plug-In . SVG Version: 6.00 Build 0)  -->
<!DOCTYPE svg PUBLIC "-//W3C//DTD SVG 1.1//EN" "http://www.w3.org/Graphics/SVG/1.1/DTD/svg11.dtd">
<svg version="1.1" id="Layer_1" xmlns="http://www.w3.org/2000/svg" xmlns:xlink="http://www.w3.org/1999/xlink" x="0px" y="0px"
	 width="136.4px" height="136.4px" viewBox="0 0 136.4 136.4" enable-background="new 0 0 136.4 136.4" xml:space="preserve">
<g>
	<path fill="#687492" d="M67.5,0C30.2,0,0,30.2,0,67.5c0,37.3,30.2,67.5,67.5,67.5c62.1,0-0.5-37.3,11.6-48.9
		c12.9-12.3,55.8,6.3,55.8-18.6C134.9,30.2,104.7,0,67.5,0z M77.7,74.5c-3.3,0-8.3,0.4-10.2,2.1c-3,2.9-3.2,6.6-2.4,9.7
		c0.5,2-1.5,3.7-3.4,2.9c-5.3-2.4-8.8-8-8-14.3c0.7-6,5.6-11,11.6-11.9c6.5-1,12.3,2.6,14.7,8C80.6,72.6,79.4,74.5,77.7,74.5z"/>
	<circle fill="#E57E25" cx="67.5" cy="18.6" r="9.3"/>
	<circle fill="#F9EAB0" cx="67.5" cy="116.3" r="9.3"/>
	<circle fill="#25C3AA" cx="116.3" cy="62.8" r="9.3"/>
	<circle fill="#F0C419" cx="18.6" cy="67.5" r="9.3"/>
	<circle fill="#F29C1F" cx="32.9" cy="32.9" r="9.3"/>
	<circle fill="#8697CB" cx="97.7" cy="32.9" r="9.3"/>
	<circle fill="#F3D55B" cx="32.9" cy="102" r="9.3"/>
</g>
<g>
</g>
<g>
</g>
<g>
</g>
<g>
</g>
<g>
</g>
<g>
</g>
<g>
</g>
<g>
</g>
<g>
</g>
<g>
</g>
<g>
</g>
<g>
</g>
<g>
</g>
<g>
</g>
<g>
</g>
</svg>
