<?xml version="1.0" encoding="utf-8"?>
<!-- Generator: Adobe Illustrator 17.0.0, SVG Export Plug-In . SVG Version: 6.00 Build 0)  -->
<!DOCTYPE svg PUBLIC "-//W3C//DTD SVG 1.1//EN" "http://www.w3.org/Graphics/SVG/1.1/DTD/svg11.dtd">
<svg version="1.1" id="Layer_1" xmlns="http://www.w3.org/2000/svg" xmlns:xlink="http://www.w3.org/1999/xlink" x="0px" y="0px"
	 width="145.6px" height="110.2px" viewBox="0 0 145.6 110.2" enable-background="new 0 0 145.6 110.2" xml:space="preserve">
<g>
	<g>
		<rect x="0" y="0" fill="#ECF0F1" width="91.3" height="91.3"/>
		<rect x="0" y="0" fill="#546A79" width="91.3" height="18.9"/>
		<circle fill="#ED7161" cx="9.4" cy="9.4" r="4.7"/>
		<circle fill="#F0C419" cx="23.6" cy="9.4" r="4.7"/>
		<circle fill="#4FBA6F" cx="37.8" cy="9.4" r="4.7"/>
		<g>
			<path fill="#8697CB" d="M72.4,31.5h7.9c0.9,0,1.6-0.7,1.6-1.6s-0.7-1.6-1.6-1.6h-7.9c-0.9,0-1.6,0.7-1.6,1.6S71.5,31.5,72.4,31.5
				z"/>
			<path fill="#8697CB" d="M80.3,33h-7.9c-0.9,0-1.6,0.7-1.6,1.6c0,0.9,0.7,1.6,1.6,1.6h7.9c0.9,0,1.6-0.7,1.6-1.6
				C81.8,33.8,81.1,33,80.3,33z"/>
			<path fill="#8697CB" d="M80.3,37.8h-7.9c-0.9,0-1.6,0.7-1.6,1.6c0,0.9,0.7,1.6,1.6,1.6h7.9c0.9,0,1.6-0.7,1.6-1.6
				C81.8,38.5,81.1,37.8,80.3,37.8z"/>
		</g>
		<g>
			<path fill="#BDC3C7" d="M11,56.7h33c0.9,0,1.6-0.7,1.6-1.6c0-0.9-0.7-1.6-1.6-1.6H11c-0.9,0-1.6,0.7-1.6,1.6
				C9.4,55.9,10.1,56.7,11,56.7z"/>
			<path fill="#BDC3C7" d="M50.4,56.7h14.2c0.9,0,1.6-0.7,1.6-1.6c0-0.9-0.7-1.6-1.6-1.6H50.4c-0.9,0-1.6,0.7-1.6,1.6
				C48.8,55.9,49.5,56.7,50.4,56.7z"/>
			<path fill="#BDC3C7" d="M70.8,56.7h9.4c0.9,0,1.6-0.7,1.6-1.6c0-0.9-0.7-1.6-1.6-1.6h-9.4c-0.9,0-1.6,0.7-1.6,1.6
				C69.2,55.9,69.9,56.7,70.8,56.7z"/>
			<path fill="#BDC3C7" d="M80.3,61.4h-33c-0.9,0-1.6,0.7-1.6,1.6s0.7,1.6,1.6,1.6h33c0.9,0,1.6-0.7,1.6-1.6S81.1,61.4,80.3,61.4z"
				/>
			<path fill="#BDC3C7" d="M26.8,61.4c-0.9,0-1.6,0.7-1.6,1.6s0.7,1.6,1.6,1.6h14.2c0.9,0,1.6-0.7,1.6-1.6s-0.7-1.6-1.6-1.6H26.8z"
				/>
			<path fill="#BDC3C7" d="M11,64.5h9.4c0.9,0,1.6-0.7,1.6-1.6s-0.7-1.6-1.6-1.6H11c-0.9,0-1.6,0.7-1.6,1.6S10.1,64.5,11,64.5z"/>
			<path fill="#BDC3C7" d="M44.1,69.2H11c-0.9,0-1.6,0.7-1.6,1.6c0,0.9,0.7,1.6,1.6,1.6h33c0.9,0,1.6-0.7,1.6-1.6
				C45.6,69.9,44.9,69.2,44.1,69.2z"/>
			<path fill="#BDC3C7" d="M64.5,72.4c0.9,0,1.6-0.7,1.6-1.6c0-0.9-0.7-1.6-1.6-1.6H50.4c-0.9,0-1.6,0.7-1.6,1.6
				c0,0.9,0.7,1.6,1.6,1.6H64.5z"/>
			<path fill="#BDC3C7" d="M80.3,69.2h-9.4c-0.9,0-1.6,0.7-1.6,1.6c0,0.9,0.7,1.6,1.6,1.6h9.4c0.9,0,1.6-0.7,1.6-1.6
				C81.8,69.9,81.1,69.2,80.3,69.2z"/>
			<path fill="#BDC3C7" d="M80.3,77.1h-33c-0.9,0-1.6,0.7-1.6,1.6c0,0.9,0.7,1.6,1.6,1.6h33c0.9,0,1.6-0.7,1.6-1.6
				C81.8,77.8,81.1,77.1,80.3,77.1z"/>
			<path fill="#BDC3C7" d="M40.9,77.1H26.8c-0.9,0-1.6,0.7-1.6,1.6c0,0.9,0.7,1.6,1.6,1.6h14.2c0.9,0,1.6-0.7,1.6-1.6
				C42.5,77.8,41.8,77.1,40.9,77.1z"/>
			<path fill="#BDC3C7" d="M20.5,77.1H11c-0.9,0-1.6,0.7-1.6,1.6c0,0.9,0.7,1.6,1.6,1.6h9.4c0.9,0,1.6-0.7,1.6-1.6
				C22,77.8,21.3,77.1,20.5,77.1z"/>
		</g>
		<path fill="#CBB292" d="M17.3,40.9L17.3,40.9c-3.5,0-6.3-2.8-6.3-6.3v0c0-3.5,2.8-6.3,6.3-6.3h0c3.5,0,6.3,2.8,6.3,6.3v0
			C23.6,38.1,20.8,40.9,17.3,40.9z"/>
	</g>
	<g>
		<path fill="#687492" d="M99.9,18.9c-25.2,0-45.6,20.4-45.6,45.6c0,25.2,20.4,45.6,45.6,45.6c42,0-0.3-25.2,7.9-33
			c8.7-8.3,37.8,4.2,37.8-12.6C145.6,39.3,125.1,18.9,99.9,18.9z M106.8,69.3c-2.3,0-5.6,0.2-6.9,1.4c-2,1.9-2.2,4.5-1.6,6.5
			c0.4,1.4-1,2.5-2.3,1.9c-3.6-1.6-5.9-5.4-5.4-9.7c0.5-4.1,3.8-7.4,7.8-8c4.4-0.7,8.3,1.8,10,5.4C108.8,68,108,69.2,106.8,69.3z"/>
		<circle fill="#E57E25" cx="99.9" cy="31.5" r="6.3"/>
		<circle fill="#F9EAB0" cx="99.9" cy="97.6" r="6.3"/>
		<circle fill="#25C3AA" cx="133" cy="61.4" r="6.3"/>
		<circle fill="#F0C419" cx="66.9" cy="64.5" r="6.3"/>
		<circle fill="#F29C1F" cx="76.6" cy="41.2" r="6.3"/>
		<circle fill="#8697CB" cx="120.4" cy="41.2" r="6.3"/>
		<circle fill="#F3D55B" cx="76.6" cy="87.9" r="6.3"/>
	</g>
</g>
<g>
</g>
<g>
</g>
<g>
</g>
<g>
</g>
<g>
</g>
<g>
</g>
<g>
</g>
<g>
</g>
<g>
</g>
<g>
</g>
<g>
</g>
<g>
</g>
<g>
</g>
<g>
</g>
<g>
</g>
</svg>
