<?xml version="1.0" encoding="utf-8"?>
<!-- Generator: Adobe Illustrator 17.0.0, SVG Export Plug-In . SVG Version: 6.00 Build 0)  -->
<!DOCTYPE svg PUBLIC "-//W3C//DTD SVG 1.1//EN" "http://www.w3.org/Graphics/SVG/1.1/DTD/svg11.dtd">
<svg version="1.1" id="Layer_1" xmlns="http://www.w3.org/2000/svg" xmlns:xlink="http://www.w3.org/1999/xlink" x="0px" y="0px"
	 width="109.9px" height="140.6px" viewBox="0 0 109.9 140.6" enable-background="new 0 0 109.9 140.6" xml:space="preserve">
<g>
	
		<path fill-rule="evenodd" clip-rule="evenodd" fill="none" stroke="#FB8C00" stroke-width="4.5779" stroke-linecap="round" stroke-miterlimit="3" d="
		M15.9,93.6c-9.1-11.3-13.6-24-13.6-38c0-14.8,5.2-27.4,15.6-37.8C28.1,7.7,40.4,2.5,54.9,2.3c14.5,0.2,26.9,5.4,37.2,15.6
		c10.4,10.4,15.6,23,15.6,37.8c0,14-4.6,26.6-13.7,38l-21.9,23.5 M63.4,107.2l-3.2-3.7"/>
	
		<path fill-rule="evenodd" clip-rule="evenodd" fill="none" stroke="#FB8C00" stroke-width="4.5779" stroke-linecap="round" stroke-miterlimit="3" d="
		M36.6,76.1c-1.5-1.6-2.6-3.4-3.2-5.3c-0.7-1.9-0.9-4-0.6-6.2c0.2-4.4,2-8,5.4-10.8c3.3-2.8,7.1-4,11.3-3.5c2.5,0.1,4.8,0.8,6.8,2.1
		c1.4,0.8,2.7,1.8,3.8,3.1l16.9,19.6"/>
	
		<line fill-rule="evenodd" clip-rule="evenodd" fill="none" stroke="#FB8C00" stroke-width="4.5779" stroke-linecap="round" stroke-miterlimit="3" x1="72.1" y1="117.1" x2="63.4" y2="107.2"/>
	
		<path fill-rule="evenodd" clip-rule="evenodd" fill="none" stroke="#FB8C00" stroke-width="4.5779" stroke-linecap="round" stroke-miterlimit="3" d="
		M60.2,103.5L36.6,76.1 M55.1,138.3L15.9,93.6"/>
</g>
<g>
</g>
<g>
</g>
<g>
</g>
<g>
</g>
<g>
</g>
<g>
</g>
<g>
</g>
<g>
</g>
<g>
</g>
<g>
</g>
<g>
</g>
<g>
</g>
<g>
</g>
<g>
</g>
<g>
</g>
</svg>
