<?xml version="1.0" encoding="utf-8"?>
<!-- Generator: Adobe Illustrator 17.0.0, SVG Export Plug-In . SVG Version: 6.00 Build 0)  -->
<!DOCTYPE svg PUBLIC "-//W3C//DTD SVG 1.1//EN" "http://www.w3.org/Graphics/SVG/1.1/DTD/svg11.dtd">
<svg version="1.1" id="Layer_1" xmlns="http://www.w3.org/2000/svg" xmlns:xlink="http://www.w3.org/1999/xlink" x="0px" y="0px"
	 width="109.9px" height="109.9px" viewBox="0 0 109.9 109.9" enable-background="new 0 0 109.9 109.9" xml:space="preserve">
<g>
	<rect x="0" y="0" fill="#ECF0F1" width="109.9" height="109.9"/>
	<rect x="0" y="0" fill="#546A79" width="109.9" height="22.7"/>
	<circle fill="#ED7161" cx="11.4" cy="11.4" r="5.7"/>
	<circle fill="#F0C419" cx="28.4" cy="11.4" r="5.7"/>
	<circle fill="#4FBA6F" cx="45.5" cy="11.4" r="5.7"/>
	<g>
		<path fill="#8697CB" d="M87.2,37.9h9.5c1,0,1.9-0.8,1.9-1.9s-0.8-1.9-1.9-1.9h-9.5c-1,0-1.9,0.8-1.9,1.9S86.1,37.9,87.2,37.9z"/>
		<path fill="#8697CB" d="M96.7,39.8h-9.5c-1,0-1.9,0.8-1.9,1.9s0.8,1.9,1.9,1.9h9.5c1,0,1.9-0.8,1.9-1.9S97.7,39.8,96.7,39.8z"/>
		<path fill="#8697CB" d="M96.7,45.5h-9.5c-1,0-1.9,0.8-1.9,1.9s0.8,1.9,1.9,1.9h9.5c1,0,1.9-0.8,1.9-1.9S97.7,45.5,96.7,45.5z"/>
	</g>
	<g>
		<path fill="#BDC3C7" d="M13.3,68.2h39.8c1,0,1.9-0.8,1.9-1.9s-0.8-1.9-1.9-1.9H13.3c-1,0-1.9,0.8-1.9,1.9S12.2,68.2,13.3,68.2z"/>
		<path fill="#BDC3C7" d="M60.7,68.2h17.1c1,0,1.9-0.8,1.9-1.9s-0.8-1.9-1.9-1.9H60.7c-1,0-1.9,0.8-1.9,1.9S59.6,68.2,60.7,68.2z"/>
		<path fill="#BDC3C7" d="M85.3,68.2h11.4c1,0,1.9-0.8,1.9-1.9s-0.8-1.9-1.9-1.9H85.3c-1,0-1.9,0.8-1.9,1.9S84.2,68.2,85.3,68.2z"/>
		<path fill="#BDC3C7" d="M96.7,73.9H56.9c-1,0-1.9,0.8-1.9,1.9s0.8,1.9,1.9,1.9h39.8c1,0,1.9-0.8,1.9-1.9S97.7,73.9,96.7,73.9z"/>
		<path fill="#BDC3C7" d="M32.2,73.9c-1,0-1.9,0.8-1.9,1.9s0.8,1.9,1.9,1.9h17.1c1,0,1.9-0.8,1.9-1.9s-0.8-1.9-1.9-1.9H32.2z"/>
		<path fill="#BDC3C7" d="M13.3,77.7h11.4c1,0,1.9-0.8,1.9-1.9s-0.8-1.9-1.9-1.9H13.3c-1,0-1.9,0.8-1.9,1.9S12.2,77.7,13.3,77.7z"/>
		<path fill="#BDC3C7" d="M53.1,83.4H13.3c-1,0-1.9,0.8-1.9,1.9s0.8,1.9,1.9,1.9h39.8c1,0,1.9-0.8,1.9-1.9S54.1,83.4,53.1,83.4z"/>
		<path fill="#BDC3C7" d="M77.7,87.2c1,0,1.9-0.8,1.9-1.9s-0.8-1.9-1.9-1.9H60.7c-1,0-1.9,0.8-1.9,1.9s0.8,1.9,1.9,1.9H77.7z"/>
		<path fill="#BDC3C7" d="M96.7,83.4H85.3c-1,0-1.9,0.8-1.9,1.9s0.8,1.9,1.9,1.9h11.4c1,0,1.9-0.8,1.9-1.9S97.7,83.4,96.7,83.4z"/>
		<path fill="#BDC3C7" d="M96.7,92.9H56.9c-1,0-1.9,0.8-1.9,1.9s0.8,1.9,1.9,1.9h39.8c1,0,1.9-0.8,1.9-1.9S97.7,92.9,96.7,92.9z"/>
		<path fill="#BDC3C7" d="M49.3,92.9H32.2c-1,0-1.9,0.8-1.9,1.9s0.8,1.9,1.9,1.9h17.1c1,0,1.9-0.8,1.9-1.9S50.3,92.9,49.3,92.9z"/>
		<path fill="#BDC3C7" d="M24.6,92.9H13.3c-1,0-1.9,0.8-1.9,1.9s0.8,1.9,1.9,1.9h11.4c1,0,1.9-0.8,1.9-1.9S25.7,92.9,24.6,92.9z"/>
	</g>
	<path fill="#CBB292" d="M20.8,49.3L20.8,49.3c-4.2,0-7.6-3.4-7.6-7.6v0c0-4.2,3.4-7.6,7.6-7.6h0c4.2,0,7.6,3.4,7.6,7.6v0
		C28.4,45.9,25,49.3,20.8,49.3z"/>
</g>
<g>
</g>
<g>
</g>
<g>
</g>
<g>
</g>
<g>
</g>
<g>
</g>
<g>
</g>
<g>
</g>
<g>
</g>
<g>
</g>
<g>
</g>
<g>
</g>
<g>
</g>
<g>
</g>
<g>
</g>
</svg>
